<svg width="128" height="128" viewBox="0 0 128 128" fill="none" xmlns="http://www.w3.org/2000/svg">
  <rect width="128" height="128" rx="30" fill="#0F172A"/>
  <rect x="26" y="20" width="56" height="74" rx="14" fill="url(#paper)"/>
  <path d="M69 20V37C69 40.3137 71.6863 43 75 43H92" fill="#FED7AA"/>
  <path d="M69 20V37C69 40.3137 71.6863 43 75 43H92" stroke="#FDBA74" stroke-width="4" stroke-linejoin="round"/>
  <path d="M42 48H67" stroke="#334155" stroke-width="6" stroke-linecap="round"/>
  <path d="M42 61H67" stroke="#334155" stroke-width="6" stroke-linecap="round"/>
  <path d="M42 74H58" stroke="#334155" stroke-width="6" stroke-linecap="round"/>
  <path d="M78 57L95 48V82L78 73" fill="url(#signal)"/>
  <path d="M78 57L95 48V82L78 73" stroke="#FB923C" stroke-width="4" stroke-linejoin="round"/>
  <circle cx="94" cy="47" r="7" fill="#FDBA74"/>
  <circle cx="95" cy="82" r="7" fill="#FDBA74"/>
  <defs>
    <linearGradient id="paper" x1="54" y1="20" x2="54" y2="94" gradientUnits="userSpaceOnUse">
      <stop stop-color="#FFF7ED"/>
      <stop offset="1" stop-color="#FFEDD5"/>
    </linearGradient>
    <linearGradient id="signal" x1="86.5" y1="48" x2="86.5" y2="82" gradientUnits="userSpaceOnUse">
      <stop stop-color="#FDBA74"/>
      <stop offset="1" stop-color="#F97316"/>
    </linearGradient>
  </defs>
</svg>
